<svg id="Calque_1" data-name="Calque 1" xmlns="http://www.w3.org/2000/svg" viewBox="0 0 118 118"><path d="M58.83,102.39a2,2,0,0,1-1-.3l-12.69-8a19.65,19.65,0,0,1-8.93-16.66V55.76A2,2,0,0,1,37.4,54l20.71-8.28a1.89,1.89,0,0,1,1.44,0L80.27,54a2,2,0,0,1,1.22,1.8V77.43a19.63,19.63,0,0,1-8.93,16.63l-12.69,8A2,2,0,0,1,58.83,102.39ZM40.06,57.08V77.43A15.73,15.73,0,0,0,47.2,90.8l11.63,7.35,11.63-7.36A15.75,15.75,0,0,0,77.6,77.44V57.08L58.83,49.57Z" style="fill:#e60000"/><path d="M94.36,75.76h-3a1.95,1.95,0,0,1,0-3.89h3a18.77,18.77,0,0,0,0-37.54h0a18.83,18.83,0,0,0-7.1,1.39,1.93,1.93,0,0,1-1.51,0,2,2,0,0,1-1-1.1,27.65,27.65,0,0,0-51.76,0,1.93,1.93,0,0,1-2.55,1.11,18.77,18.77,0,1,0-7.1,36.15h3a1.95,1.95,0,0,1,0,3.89h-3A22.66,22.66,0,1,1,30,31.47a31.54,31.54,0,0,1,57.58,0,22.58,22.58,0,0,1,6.74-1h0a22.66,22.66,0,0,1,0,45.32Z" style="fill:#e60000"/><path d="M56.67,81.68a1.92,1.92,0,0,1-1.37-.57l-5.92-5.92a1.94,1.94,0,0,1,2.75-2.75L56.67,77,67.76,65.93a1.94,1.94,0,0,1,2.74,2.75L58,81.11A1.92,1.92,0,0,1,56.67,81.68Z"/></svg>