<svg width="134" height="59" viewBox="0 0 134 59" fill="none" xmlns="http://www.w3.org/2000/svg">
<path d="M7.47419 28.0771C9.28323 27.746 10.6352 26.9799 11.5207 25.7786C12.4062 24.5773 12.8537 23.0638 12.8537 21.2288C12.8537 20.2261 12.7014 18.1167 12.3967 14.8817C12.1301 12.2805 11.9968 10.6157 11.9968 9.87789C11.9968 8.91306 12.2348 8.19417 12.7014 7.73068C13.1679 7.26719 13.9391 7.03071 15.015 7.03071H16.9764V0.0310059H13.3488C10.4258 0.0310059 8.10259 0.825567 6.35068 2.40523C4.60829 3.98489 3.73234 6.19831 3.73234 9.02657C3.73234 10.19 3.81802 11.5048 3.97988 12.9521C4.15127 14.3993 4.24648 15.2601 4.28456 15.5249C4.61781 18.1924 4.7892 19.9707 4.7892 20.8788C4.7892 22.0801 4.40835 23.0071 3.6276 23.6503C2.85638 24.303 1.64718 24.6624 0 24.7286V28.1528H7.44562V28.0771H7.47419Z" fill="#E30613"/>
<path d="M3.64713 34.5376C4.41835 35.2187 4.80872 36.1267 4.80872 37.2618C4.80872 38.1604 4.63734 39.9482 4.3041 42.6062C4.26601 42.871 4.1708 43.7318 3.99942 45.179C3.82803 46.6263 3.75186 47.9316 3.75186 49.1046C3.75186 51.9707 4.62782 54.1935 6.37021 55.7827C8.1126 57.3623 10.4453 58.1569 13.3683 58.1569H16.9959V51.1572H15.0345C13.9586 51.1572 13.1874 50.9112 12.7209 50.4288C12.2543 49.9464 12.0163 49.2181 12.0163 48.2532C12.0163 47.4871 12.1496 45.8412 12.4162 43.3062C12.7209 40.0712 12.8732 37.9618 12.8732 36.9591C12.8732 35.0957 12.4257 33.5728 11.5402 32.3809C10.6548 31.1986 9.30275 30.4229 7.49371 30.054V30.0256H0.0195312V33.4025C1.66671 33.4877 2.87591 33.8566 3.64713 34.5376Z" fill="white"/>
<path d="M43.7883 28.0771C41.9793 27.746 40.6273 26.9799 39.7418 25.7786C38.8563 24.5773 38.4088 23.0638 38.4088 21.2288C38.4088 20.2261 38.5612 18.1167 38.8659 14.8817C39.1324 12.2805 39.2658 10.6157 39.2658 9.87789C39.2658 8.91306 39.0277 8.19417 38.5612 7.73068C38.0946 7.26719 37.3234 7.03071 36.2475 7.03071H34.2861V0.0310059H37.9137C40.8368 0.0310059 43.1599 0.825567 44.9119 2.40523C46.6542 3.98489 47.5302 6.19831 47.5302 9.02657C47.5302 10.19 47.4445 11.5048 47.2826 12.9521C47.1113 14.3993 47.0161 15.2601 46.978 15.5249C46.6447 18.1924 46.4733 19.9707 46.4733 20.8788C46.4733 22.0801 46.8542 23.0071 47.6349 23.6503C48.4062 24.303 49.6154 24.6624 51.2625 24.7286V28.1528H43.8169V28.0771H43.7883Z" fill="#E30613"/>
<path d="M47.6066 34.5376C46.8354 35.2187 46.445 36.1267 46.445 37.2618C46.445 38.1604 46.6164 39.9482 46.9496 42.6062C46.9877 42.871 47.0829 43.7318 47.2543 45.179C47.4257 46.6263 47.5019 47.9316 47.5019 49.1046C47.5019 51.9707 46.6259 54.1935 44.8835 55.7827C43.1411 57.3623 40.8084 58.1569 37.8854 58.1569H34.2578V51.1572H36.2192C37.2951 51.1572 38.0663 50.9112 38.5329 50.4288C38.9994 49.9464 39.2374 49.2181 39.2374 48.2532C39.2374 47.4871 39.1041 45.8412 38.8375 43.3062C38.5329 40.0712 38.3805 37.9618 38.3805 36.9591C38.3805 35.0957 38.828 33.5728 39.7135 32.3809C40.599 31.1986 41.951 30.4229 43.76 30.054V30.0256H51.2056V33.4025C49.587 33.4877 48.3778 33.8566 47.6066 34.5376Z" fill="white"/>
<path d="M59.0037 7.40905C59.5178 6.48206 60.2319 5.76318 61.1555 5.24293C62.079 4.72268 63.1168 4.46729 64.2879 4.46729C65.7161 4.46729 66.9349 4.84565 67.9536 5.59291C68.9724 6.34018 69.6484 7.36176 69.9912 8.65765H66.773C66.535 8.15632 66.1922 7.77796 65.7542 7.5131C65.3162 7.24825 64.8116 7.12528 64.2594 7.12528C63.3549 7.12528 62.6217 7.43743 62.0695 8.06173C61.5077 8.68603 61.2316 9.51842 61.2316 10.5684C61.2316 11.6183 61.5077 12.4507 62.0695 13.075C62.6313 13.6993 63.3644 14.0115 64.2594 14.0115C64.8211 14.0115 65.3162 13.879 65.7542 13.6237C66.1922 13.3588 66.535 12.9804 66.773 12.4791H69.9912C69.6484 13.775 68.9724 14.7871 67.9536 15.5344C66.9349 16.2816 65.7161 16.6506 64.2879 16.6506C63.1263 16.6506 62.079 16.3952 61.1555 15.8749C60.2319 15.3547 59.5178 14.6358 59.0037 13.7182C58.4895 12.8007 58.2324 11.7508 58.2324 10.5684C58.2324 9.386 58.4895 8.33604 59.0037 7.40905Z" fill="#E30613"/>
<path d="M73.6188 16.102C72.8667 15.7047 72.2859 15.1372 71.8574 14.3994C71.429 13.6615 71.21 12.8008 71.21 11.8076C71.21 10.8333 71.429 9.97251 71.8574 9.22525C72.2954 8.47798 72.8857 7.91044 73.6379 7.51316C74.3901 7.11588 75.2375 6.91724 76.1705 6.91724C77.1036 6.91724 77.951 7.11588 78.7032 7.51316C79.4554 7.91044 80.0552 8.47798 80.4837 9.22525C80.9216 9.97251 81.1311 10.8333 81.1311 11.8076C81.1311 12.7819 80.9121 13.6426 80.4741 14.3899C80.0362 15.1372 79.4363 15.7047 78.6746 16.102C77.9129 16.4993 77.0655 16.6979 76.1324 16.6979C75.1994 16.6979 74.371 16.4993 73.6188 16.102ZM77.5797 13.567C77.9701 13.1602 78.17 12.5738 78.17 11.817C78.17 11.0603 77.9796 10.4738 77.5987 10.0671C77.2179 9.66036 76.7418 9.45226 76.1896 9.45226C75.6183 9.45226 75.1422 9.6509 74.7709 10.0576C74.3901 10.4644 74.2092 11.0508 74.2092 11.817C74.2092 12.5738 74.3901 13.1602 74.7614 13.567C75.1327 13.9737 75.5993 14.1818 76.161 14.1818C76.7228 14.1818 77.1798 13.9737 77.5797 13.567Z" fill="#E30613"/>
<path d="M82.6827 9.2253C83.0541 8.4875 83.5587 7.91995 84.1966 7.52267C84.8345 7.12539 85.5486 6.92675 86.3389 6.92675C86.9673 6.92675 87.5386 7.05918 88.0622 7.31457C88.5859 7.57943 88.9858 7.92941 89.2905 8.37399V3.96606H92.223V16.5655H89.2905V15.2034C89.0144 15.6575 88.624 16.0169 88.1194 16.2912C87.6147 16.5655 87.0244 16.698 86.3484 16.698C85.5581 16.698 84.8441 16.4993 84.2061 16.0926C83.5682 15.6858 83.0636 15.1183 82.6922 14.371C82.3209 13.6238 82.14 12.7724 82.14 11.7887C82.1305 10.8239 82.3114 9.96311 82.6827 9.2253ZM88.6811 10.0955C88.2717 9.67934 87.7766 9.46178 87.1958 9.46178C86.615 9.46178 86.1199 9.66988 85.7105 10.0861C85.3011 10.5023 85.1011 11.0698 85.1011 11.7982C85.1011 12.5265 85.3011 13.1035 85.7105 13.5292C86.1199 13.9548 86.615 14.1629 87.1958 14.1629C87.7766 14.1629 88.2717 13.9548 88.6811 13.5292C89.0905 13.113 89.2905 12.536 89.2905 11.8076C89.2905 11.0793 89.0905 10.5117 88.6811 10.0955Z" fill="#E30613"/>
<path d="M103.306 12.5075H96.6694C96.717 13.094 96.9074 13.548 97.2406 13.8602C97.5739 14.1723 97.9928 14.3331 98.4879 14.3331C99.2211 14.3331 99.7257 14.0304 100.011 13.4156H103.134C102.972 14.0399 102.687 14.598 102.268 15.0993C101.849 15.6007 101.325 15.9885 100.697 16.2722C100.068 16.556 99.3639 16.6979 98.5926 16.6979C97.6596 16.6979 96.8217 16.4993 96.0886 16.102C95.3554 15.7047 94.7841 15.1372 94.3747 14.3994C93.9653 13.6615 93.7559 12.8008 93.7559 11.8076C93.7559 10.8144 93.9558 9.95359 94.3652 9.21579C94.7746 8.47798 95.3364 7.91044 96.0695 7.51316C96.8027 7.11588 97.6405 6.91724 98.5926 6.91724C99.5162 6.91724 100.345 7.10642 101.059 7.49424C101.782 7.88206 102.344 8.43069 102.744 9.14957C103.144 9.86846 103.353 10.7009 103.353 11.6562C103.363 11.9305 103.344 12.2143 103.306 12.5075ZM100.364 10.89C100.364 10.3887 100.192 9.99143 99.8495 9.6982C99.5067 9.40497 99.0782 9.25362 98.5641 9.25362C98.069 9.25362 97.6596 9.39551 97.3168 9.67928C96.9836 9.96305 96.7741 10.3698 96.6884 10.89H100.364Z" fill="#E30613"/>
<path d="M61.165 31.8229H65.002V34.0742H58.2324V22.1179H61.165V31.8229Z" fill="white"/>
<path d="M75.3711 30.0163H68.7348C68.7824 30.6028 68.9728 31.0568 69.3061 31.369C69.6393 31.6811 70.0582 31.8419 70.5534 31.8419C71.2865 31.8419 71.7911 31.5392 72.0768 30.9244H75.1997C75.0379 31.5487 74.7522 32.1068 74.3333 32.6081C73.9144 33.1094 73.3907 33.4973 72.7623 33.781C72.1339 34.0648 71.4293 34.2067 70.6581 34.2067C69.725 34.2067 68.8871 34.0081 68.154 33.6108C67.4209 33.2135 66.8496 32.6459 66.4402 31.9081C66.0308 31.1703 65.8213 30.3096 65.8213 29.3164C65.8213 28.3326 66.0212 27.4624 66.4306 26.7246C66.8401 25.9868 67.4018 25.4192 68.135 25.0219C68.8681 24.6247 69.706 24.426 70.6581 24.426C71.5816 24.426 72.41 24.6152 73.1241 25.003C73.8477 25.3909 74.4095 25.9395 74.8094 26.6584C75.2092 27.3773 75.4187 28.2096 75.4187 29.165C75.4282 29.4393 75.4092 29.7231 75.3711 30.0163ZM72.429 28.3988C72.429 27.8975 72.2577 27.5002 71.9149 27.207C71.5721 26.9138 71.1437 26.7624 70.6295 26.7624C70.1344 26.7624 69.725 26.9043 69.3822 27.1881C69.0395 27.4718 68.8395 27.8786 68.7538 28.3988H72.429Z" fill="white"/>
<path d="M76.9419 26.7341C77.3132 25.9963 77.8178 25.4287 78.4558 25.0315C79.0937 24.6342 79.8078 24.4355 80.598 24.4355C81.2741 24.4355 81.8644 24.568 82.369 24.8423C82.8736 25.1166 83.2735 25.476 83.5401 25.9112V24.568H86.4727V34.0649H83.5401V32.7217C83.2545 33.1663 82.8546 33.5257 82.3499 33.7906C81.8453 34.0554 81.255 34.1973 80.579 34.1973C79.7983 34.1973 79.0937 33.9987 78.4558 33.5919C77.8178 33.1852 77.3132 32.6176 76.9419 31.8704C76.5706 31.1231 76.3896 30.2623 76.3896 29.288C76.3896 28.3232 76.5706 27.4719 76.9419 26.7341ZM82.9403 27.5949C82.5309 27.1787 82.0357 26.9611 81.4549 26.9611C80.8742 26.9611 80.379 27.1692 79.9696 27.5854C79.5602 28.0016 79.3603 28.5692 79.3603 29.2975C79.3603 30.0259 79.5602 30.6029 79.9696 31.0285C80.379 31.4542 80.8742 31.6623 81.4549 31.6623C82.0357 31.6623 82.5309 31.4542 82.9403 31.0285C83.3497 30.6123 83.5496 30.0353 83.5496 29.307C83.5496 28.5881 83.3497 28.0205 82.9403 27.5949Z" fill="white"/>
<path d="M92.8231 24.9179C93.3373 24.6152 93.9086 24.4639 94.537 24.4639V27.5475H93.7277C92.9945 27.5475 92.4518 27.7083 92.0805 28.0205C91.7187 28.3326 91.5283 28.8812 91.5283 29.6663V34.0743H88.5957V24.5679H91.5283V26.1476C91.8805 25.6273 92.309 25.2206 92.8231 24.9179Z" fill="white"/>
<path d="M104.449 25.5517C105.115 26.2705 105.449 27.2637 105.449 28.5218V34.0743H102.535V28.9191C102.535 28.2853 102.373 27.7935 102.04 27.434C101.707 27.0746 101.259 26.9043 100.707 26.9043C100.145 26.9043 99.6977 27.084 99.3739 27.434C99.0502 27.784 98.8788 28.2759 98.8788 28.9191V34.0743H95.9463V24.5679H98.8788V25.826C99.174 25.4098 99.5739 25.0787 100.079 24.8328C100.583 24.5868 101.145 24.4639 101.773 24.4639C102.887 24.4639 103.782 24.8233 104.449 25.5517Z" fill="white"/>
<path d="M107.705 23.1301C107.382 22.8274 107.22 22.4585 107.22 22.0139C107.22 21.5599 107.382 21.1815 107.705 20.8788C108.029 20.5761 108.448 20.4248 108.962 20.4248C109.467 20.4248 109.876 20.5761 110.209 20.8788C110.533 21.1815 110.695 21.5599 110.695 22.0139C110.695 22.4585 110.533 22.8274 110.209 23.1301C109.886 23.4328 109.467 23.5841 108.962 23.5841C108.448 23.5841 108.029 23.4328 107.705 23.1301ZM110.419 24.5679V34.0648H107.486V24.5679H110.419Z" fill="white"/>
<path d="M121.053 25.5517C121.72 26.2705 122.053 27.2637 122.053 28.5218V34.0743H119.139V28.9191C119.139 28.2853 118.978 27.7935 118.644 27.434C118.311 27.084 117.864 26.9043 117.311 26.9043C116.759 26.9043 116.302 27.084 115.978 27.434C115.655 27.784 115.483 28.2759 115.483 28.9191V34.0743H112.551V24.5679H115.483V25.826C115.778 25.4098 116.178 25.0787 116.683 24.8328C117.188 24.5868 117.749 24.4639 118.378 24.4639C119.492 24.4639 120.387 24.8233 121.053 25.5517Z" fill="white"/>
<path d="M129.509 24.8423C130.013 25.1166 130.413 25.476 130.68 25.9112V24.568H133.612V34.0554C133.612 34.9256 133.441 35.7202 133.089 36.4296C132.736 37.1391 132.213 37.7066 131.499 38.1228C130.785 38.539 129.899 38.7566 128.833 38.7566C127.414 38.7566 126.271 38.4255 125.386 37.7634C124.51 37.1012 124.005 36.2026 123.882 35.0675H126.776C126.871 35.427 127.081 35.7202 127.424 35.9283C127.766 36.1364 128.185 36.2405 128.69 36.2405C129.299 36.2405 129.775 36.0702 130.137 35.7202C130.499 35.3702 130.68 34.8216 130.68 34.0649V32.7217C130.394 33.1663 130.004 33.5257 129.499 33.8C128.995 34.0743 128.404 34.2162 127.738 34.2162C126.947 34.2162 126.233 34.0176 125.595 33.6108C124.957 33.2041 124.453 32.6366 124.082 31.8893C123.71 31.142 123.529 30.2812 123.529 29.307C123.529 28.3327 123.72 27.4719 124.082 26.7341C124.443 25.9963 124.957 25.4287 125.595 25.0315C126.233 24.6342 126.947 24.4355 127.738 24.4355C128.404 24.4355 128.994 24.568 129.509 24.8423ZM130.07 27.5949C129.661 27.1787 129.175 26.9611 128.585 26.9611C127.995 26.9611 127.509 27.1692 127.1 27.5854C126.69 28.0016 126.49 28.5692 126.49 29.2975C126.49 30.0259 126.69 30.6029 127.1 31.0285C127.509 31.4542 127.995 31.6623 128.585 31.6623C129.175 31.6623 129.661 31.4542 130.07 31.0285C130.48 30.6123 130.68 30.0353 130.68 29.307C130.68 28.5881 130.48 28.0205 130.07 27.5949Z" fill="white"/>
<path d="M66.9253 47.8845C66.6016 48.4615 66.116 48.925 65.4495 49.275C64.783 49.6249 63.9642 49.8047 62.9835 49.8047H61.165V54.0991H58.2324V42.1428H62.9835C63.9452 42.1428 64.7545 42.3036 65.421 42.6347C66.0875 42.9658 66.5826 43.4198 66.9158 43.9968C67.2491 44.5738 67.4109 45.2359 67.4109 45.9927C67.4014 46.6832 67.2491 47.3169 66.9253 47.8845ZM64.0118 47.0899C64.2879 46.8251 64.4212 46.4562 64.4212 45.9832C64.4212 45.5102 64.2879 45.1413 64.0118 44.8765C63.7357 44.6116 63.3168 44.4887 62.7645 44.4887H61.1745V47.4872H62.7645C63.3168 47.4872 63.7357 47.3548 64.0118 47.0899Z" fill="white"/>
<path d="M71.8574 41.4902V54.0897H68.9248V41.4902H71.8574Z" fill="white"/>
<path d="M73.9616 46.759C74.333 46.0212 74.8376 45.4536 75.4755 45.0564C76.1134 44.6591 76.8275 44.4604 77.6178 44.4604C78.2938 44.4604 78.8841 44.5929 79.3888 44.8672C79.8934 45.1415 80.2933 45.5009 80.5599 45.9361V44.5929H83.4924V54.0898H80.5694V52.7466C80.2838 53.1912 79.8839 53.5506 79.3792 53.8155C78.8746 54.0803 78.2748 54.2222 77.6083 54.2222C76.8275 54.2222 76.123 54.0236 75.4851 53.6168C74.8471 53.2101 74.3425 52.6425 73.9712 51.8953C73.5999 51.148 73.4189 50.2967 73.4189 49.3129C73.4189 48.3292 73.5903 47.4873 73.9616 46.759ZM79.96 47.6198C79.5506 47.2036 79.0555 46.986 78.4747 46.986C77.8939 46.986 77.3988 47.1941 76.9894 47.6103C76.58 48.0265 76.3801 48.5941 76.3801 49.3224C76.3801 50.0508 76.58 50.6278 76.9894 51.0534C77.3988 51.4791 77.8939 51.6872 78.4747 51.6872C79.0555 51.6872 79.5506 51.4791 79.96 51.0534C80.3695 50.6372 80.5694 50.0602 80.5694 49.3319C80.5694 48.613 80.3695 48.0454 79.96 47.6198Z" fill="white"/>
<path d="M90.9574 51.6209V54.0898H89.4625C88.3961 54.0898 87.5678 53.8344 86.9775 53.3141C86.3872 52.7939 86.0825 51.952 86.0825 50.7885V47.0049H84.9209V44.5929H86.0825V42.2754H89.015V44.5929H90.9383V47.0144H89.015V50.8264C89.015 51.1102 89.0817 51.3183 89.2245 51.4412C89.3578 51.5642 89.5863 51.6304 89.91 51.6304H90.9574V51.6209Z" fill="white"/>
<path d="M97.4603 47.0143H95.8798V54.0991H92.9472V47.0143H91.8809V44.5928H92.9472V44.3184C92.9472 43.1455 93.2805 42.2658 93.9565 41.651C94.6325 41.0456 95.6227 40.7429 96.9176 40.7429C97.1366 40.7429 97.2984 40.7524 97.3937 40.7618V43.2306C96.8319 43.1928 96.4415 43.2779 96.213 43.4671C95.9845 43.6563 95.8703 44.0063 95.8703 44.5076V44.5928H97.4508V47.0143H97.4603Z" fill="white"/>
<path d="M100.659 53.6357C99.9069 53.2384 99.3261 52.6708 98.8977 51.933C98.4692 51.1952 98.2598 50.3345 98.2598 49.3413C98.2598 48.367 98.4787 47.5062 98.9072 46.7589C99.3452 46.0117 99.9355 45.4441 100.688 45.0468C101.44 44.6496 102.287 44.4509 103.22 44.4509C104.153 44.4509 105.001 44.6496 105.753 45.0468C106.505 45.4441 107.105 46.0117 107.533 46.7589C107.962 47.5062 108.181 48.367 108.181 49.3413C108.181 50.3155 107.962 51.1763 107.524 51.9236C107.086 52.6709 106.486 53.2384 105.724 53.6357C104.963 54.033 104.115 54.2316 103.182 54.2316C102.249 54.2316 101.411 54.033 100.659 53.6357ZM104.62 51.1006C105.01 50.6939 105.21 50.1074 105.21 49.3507C105.21 48.594 105.02 48.0075 104.639 47.6008C104.258 47.1941 103.782 46.986 103.22 46.986C102.649 46.986 102.173 47.1846 101.802 47.5913C101.421 47.9981 101.24 48.5845 101.24 49.3507C101.24 50.1074 101.43 50.6939 101.792 51.1006C102.163 51.5074 102.63 51.7155 103.192 51.7155C103.744 51.706 104.23 51.5074 104.62 51.1006Z" fill="white"/>
<path d="M113.97 44.9428C114.484 44.6401 115.055 44.4888 115.683 44.4888V47.5724H114.874C114.141 47.5724 113.598 47.7332 113.227 48.0454C112.865 48.3575 112.675 48.9062 112.675 49.6913V54.0992H109.742V44.5928H112.675V46.1725C113.027 45.6522 113.455 45.2455 113.97 44.9428Z" fill="white"/>
<path d="M132.127 45.5576C132.832 46.2765 133.184 47.2697 133.184 48.5372V54.0897H130.271V48.9345C130.271 48.3197 130.109 47.8467 129.785 47.5157C129.461 47.1846 129.014 47.0143 128.443 47.0143C127.871 47.0143 127.424 47.1846 127.1 47.5157C126.776 47.8467 126.615 48.3197 126.615 48.9345V54.0897H123.701V48.9345C123.701 48.3197 123.539 47.8467 123.215 47.5157C122.892 47.1846 122.444 47.0143 121.873 47.0143C121.302 47.0143 120.854 47.1846 120.53 47.5157C120.207 47.8467 120.045 48.3197 120.045 48.9345V54.0897H117.112V44.5928H120.045V45.7847C120.34 45.3874 120.73 45.0752 121.206 44.8388C121.682 44.6023 122.225 44.4888 122.835 44.4888C123.558 44.4888 124.196 44.6401 124.767 44.9523C125.329 45.255 125.777 45.6995 126.091 46.2671C126.424 45.7468 126.872 45.3212 127.443 44.9901C128.014 44.659 128.633 44.4982 129.309 44.4982C130.48 44.4888 131.423 44.8482 132.127 45.5576Z" fill="white"/>
</svg>
