<svg width="618" height="443" viewBox="0 0 618 443" fill="none" xmlns="http://www.w3.org/2000/svg">
<path fill-rule="evenodd" clip-rule="evenodd" d="M295.002 356.807C295.002 345.32 304.322 336 315.809 336C327.296 336 336.616 345.32 336.616 356.807C336.616 368.294 327.296 377.614 315.809 377.614C304.322 377.614 295.002 368.33 295.002 356.807Z" fill="#A349A8"/>
<path d="M518 20.807C518 32.2983 527.316 41.6139 538.807 41.6139C550.299 41.6139 559.614 32.2983 559.614 20.807C559.614 9.31559 550.299 -4.07198e-07 538.807 -9.09501e-07C527.316 -1.4118e-06 518 9.31559 518 20.807Z" fill="#55BAD0"/>
<path fill-rule="evenodd" clip-rule="evenodd" d="M0.00132279 354.807C0.00132329 343.32 9.32111 334 20.8083 334C32.2955 334 41.6152 343.32 41.6152 354.807C41.6152 366.294 32.2955 375.614 20.8083 375.614C9.3211 375.614 0.00132229 366.33 0.00132279 354.807Z" fill="#B7BF46"/>
<circle cx="600.461" cy="425.461" r="15.9612" stroke="#FF9D01" stroke-width="3"/>
<path d="M223.001 96.4998C223.001 103.956 229.045 110 236.501 110C243.957 110 250.001 103.956 250.001 96.4998C250.001 89.0441 243.957 83 236.501 83C229.045 83 223.001 89.0441 223.001 96.4998Z" fill="#E7AB43"/>
<path d="M443.141 389.96L442.181 390.241L442.462 391.201L443.422 390.92L443.141 389.96ZM439.448 377.366L440.408 377.084L440.127 376.125L439.167 376.406L439.448 377.366ZM445.06 389.397L445.341 390.357L446.301 390.076L446.019 389.116L445.06 389.397ZM441.368 376.803L441.086 375.843L440.127 376.125L440.408 377.084L441.368 376.803ZM453.962 373.111L454.243 374.07L455.203 373.789L454.921 372.829L453.962 373.111ZM453.399 371.191L454.359 370.91L454.077 369.95L453.118 370.232L453.399 371.191ZM440.805 374.884L439.845 375.165L440.127 376.125L441.086 375.843L440.805 374.884ZM437.113 362.289L438.072 362.008L437.791 361.048L436.831 361.33L437.113 362.289ZM435.193 362.852L434.912 361.892L433.952 362.174L434.234 363.133L435.193 362.852ZM438.886 375.446L439.167 376.406L440.127 376.125L439.845 375.165L438.886 375.446ZM426.291 379.139L426.01 378.179L425.05 378.46L425.331 379.42L426.291 379.139ZM426.854 381.058L425.894 381.339L426.175 382.299L427.135 382.018L426.854 381.058ZM444.1 389.679L440.408 377.084L438.489 377.647L442.181 390.241L444.1 389.679ZM444.778 388.438L442.859 389L443.422 390.92L445.341 390.357L444.778 388.438ZM440.408 377.084L444.1 389.679L446.019 389.116L442.327 376.522L440.408 377.084ZM453.68 372.151L441.086 375.843L441.649 377.763L454.243 374.07L453.68 372.151ZM452.44 371.473L453.002 373.392L454.921 372.829L454.359 370.91L452.44 371.473ZM441.086 375.843L453.68 372.151L453.118 370.232L440.524 373.924L441.086 375.843ZM436.153 362.57L439.845 375.165L441.764 374.602L438.072 362.008L436.153 362.57ZM435.475 363.811L437.394 363.249L436.831 361.33L434.912 361.892L435.475 363.811ZM439.845 375.165L436.153 362.57L434.234 363.133L437.926 375.728L439.845 375.165ZM426.572 380.098L439.167 376.406L438.604 374.487L426.01 378.179L426.572 380.098ZM427.813 380.777L427.251 378.857L425.331 379.42L425.894 381.339L427.813 380.777ZM439.167 376.406L426.572 380.098L427.135 382.018L439.73 378.325L439.167 376.406Z" fill="#3D8AA0"/>
<g clip-path="url(#clip0_95_472)">
<path d="M392.787 416.681L394.025 412.877L390.925 411.868C390.97 411.115 390.908 410.369 390.754 409.646L393.666 408.164L391.851 404.598L388.939 406.079C388.448 405.52 387.879 405.04 387.243 404.633L388.252 401.533L384.449 400.295L383.44 403.395C382.687 403.35 381.941 403.412 381.218 403.566L379.736 400.655L376.169 402.47L377.651 405.381C377.092 405.872 376.612 406.442 376.205 407.077L373.105 406.068L371.867 409.872L374.967 410.881C374.922 411.634 374.984 412.38 375.138 413.103L372.226 414.584L374.041 418.151L376.953 416.67C377.444 417.229 378.013 417.709 378.649 418.115L377.64 421.215L381.443 422.453L382.452 419.353C383.205 419.399 383.951 419.336 384.674 419.183L386.156 422.094L389.723 420.279L388.241 417.367C388.801 416.876 389.28 416.307 389.687 415.672L392.787 416.681Z" stroke="#55BAD0" stroke-width="2" stroke-miterlimit="10" stroke-linejoin="round"/>
<path d="M382.017 414.227C383.593 414.74 385.286 413.878 385.798 412.303C386.311 410.727 385.45 409.035 383.874 408.522C382.299 408.009 380.606 408.87 380.093 410.446C379.58 412.021 380.442 413.714 382.017 414.227Z" stroke="#55BAD0" stroke-width="2" stroke-miterlimit="10" stroke-linejoin="round"/>
<path d="M397.12 403.368L403.001 385.301C403.685 383.199 402.536 380.943 400.435 380.259L364.301 368.498C362.199 367.814 359.943 368.963 359.259 371.064L347.498 407.198C346.814 409.3 347.962 411.556 350.064 412.24L370.984 419.049" stroke="#55BAD0" stroke-width="2" stroke-miterlimit="10" stroke-linejoin="round"/>
<path d="M360.874 375.796L398.91 388.176" stroke="#55BAD0" stroke-width="2" stroke-miterlimit="10" stroke-linejoin="round"/>
<path d="M363.062 372.302L364.964 372.921" stroke="#55BAD0" stroke-width="2" stroke-miterlimit="10" stroke-linejoin="round"/>
<path d="M366.866 373.54L368.768 374.159" stroke="#55BAD0" stroke-width="2" stroke-miterlimit="10" stroke-linejoin="round"/>
<path d="M397.295 383.444L399.197 384.063" stroke="#55BAD0" stroke-width="2" stroke-miterlimit="10" stroke-linejoin="round"/>
<path d="M372.307 382.672L362.403 413.101" stroke="#55BAD0" stroke-width="2" stroke-miterlimit="10" stroke-linejoin="round"/>
<path d="M392.652 397.707C393.175 397.878 393.743 397.589 393.913 397.066L394.532 395.164C394.702 394.641 394.413 394.074 393.89 393.904L376.774 388.333C376.251 388.163 375.684 388.451 375.514 388.974L374.895 390.876C374.725 391.399 375.013 391.966 375.536 392.137L392.652 397.707Z" stroke="#55BAD0" stroke-width="2" stroke-miterlimit="10" stroke-linejoin="round"/>
<path d="M372.396 395.321L374.298 395.94" stroke="#55BAD0" stroke-width="2" stroke-miterlimit="10" stroke-linejoin="round"/>
<path d="M371.159 399.125L373.061 399.744" stroke="#55BAD0" stroke-width="2" stroke-miterlimit="10" stroke-linejoin="round"/>
<path d="M376.2 396.559L378.102 397.178" stroke="#55BAD0" stroke-width="2" stroke-miterlimit="10" stroke-linejoin="round"/>
<path d="M359.99 384.973L364.745 386.521" stroke="#55BAD0" stroke-width="2" stroke-miterlimit="10" stroke-linejoin="round"/>
<path d="M358.442 389.728L363.197 391.275" stroke="#55BAD0" stroke-width="2" stroke-miterlimit="10" stroke-linejoin="round"/>
<path d="M356.896 394.482L361.65 396.03" stroke="#55BAD0" stroke-width="2" stroke-miterlimit="10" stroke-linejoin="round"/>
<path d="M355.348 399.237L360.102 400.784" stroke="#55BAD0" stroke-width="2" stroke-miterlimit="10" stroke-linejoin="round"/>
<path d="M353.8 403.991L358.554 405.539" stroke="#55BAD0" stroke-width="2" stroke-miterlimit="10" stroke-linejoin="round"/>
</g>
<g clip-path="url(#clip1_95_472)">
<path d="M246.239 27.1213L246.62 28.5252C246.62 28.5252 246.871 32.2255 244.063 32.9874L245.396 37.9011L232.761 41.33L230.655 41.9014L229.131 36.2858C228.56 34.1799 227.156 34.5609 227.156 34.5609C227.156 34.5609 225.05 35.1323 222.944 35.7038C220.838 36.2753 220.267 34.1694 220.267 34.1694L219.556 31.5511C218.729 31.1424 217.854 31.0558 217.208 31.2311C215.804 31.6121 215.423 30.2081 215.423 30.2081L217.207 22.896L216.838 21.5342C215.365 16.108 218.572 10.5124 223.998 9.03987L229.614 7.51595" stroke="#B7BF46" stroke-width="2" stroke-miterlimit="10" stroke-linejoin="round"/>
<path d="M225.201 16.2499L224.82 14.846C224.82 14.846 224.439 13.4421 223.036 13.8231C221.632 14.204 222.334 14.0136 222.334 14.0136C222.334 14.0136 220.93 14.3945 221.311 15.7984C221.692 17.2024 222.835 21.4141 222.835 21.4141C222.835 21.4141 223.216 22.818 224.619 22.4371C226.023 22.0561 225.321 22.2466 225.321 22.2466C225.321 22.2466 226.725 21.8656 226.344 20.4617L225.963 19.0578" stroke="#B7BF46" stroke-width="2" stroke-miterlimit="10" stroke-linejoin="round"/>
<path d="M231.695 20.5169L230.172 20.9303C229.434 21.1303 228.667 20.6904 228.465 19.9463L226.911 14.2184C226.709 13.4743 227.149 12.7068 227.893 12.5049L229.416 12.0915C230.153 11.8915 230.92 12.3313 231.122 13.0754L232.679 18.8104C232.879 19.5475 232.439 20.315 231.695 20.5169Z" stroke="#B7BF46" stroke-width="2" stroke-miterlimit="10" stroke-linejoin="round"/>
<path d="M236.553 19.1988L238.013 18.8026C238.757 18.6006 239.197 17.8331 238.995 17.0891L237.441 11.3611C237.239 10.617 236.471 10.1771 235.727 10.3791L234.267 10.7753L232.863 11.1562L235.149 19.5798L236.553 19.1988Z" stroke="#B7BF46" stroke-width="2" stroke-miterlimit="10" stroke-linejoin="round"/>
<path d="M242.69 8.48944L239.883 9.2514L239.181 9.44189L241.467 17.8654L242.169 17.6749L244.976 16.9129" stroke="#B7BF46" stroke-width="2" stroke-miterlimit="10" stroke-linejoin="round"/>
<path d="M240.323 13.6536L243.833 12.7011" stroke="#B7BF46" stroke-width="2" stroke-miterlimit="10" stroke-linejoin="round"/>
<path d="M245.478 24.3135L245.859 25.7174" stroke="#B7BF46" stroke-width="2" stroke-miterlimit="10" stroke-linejoin="round"/>
<path d="M245.096 22.9095L244.715 21.5056C244.715 21.5056 244.525 20.8037 243.823 20.9942C243.121 21.1846 226.976 25.5659 226.976 25.5659" stroke="#B7BF46" stroke-width="2" stroke-miterlimit="10" stroke-linejoin="round"/>
<path d="M231.529 6.24268L231.91 7.64659" stroke="#B7BF46" stroke-width="2" stroke-miterlimit="10" stroke-linejoin="round"/>
<path d="M234.337 5.48071L234.718 6.88463" stroke="#B7BF46" stroke-width="2" stroke-miterlimit="10" stroke-linejoin="round"/>
<path d="M237.146 4.71875L237.526 6.12267" stroke="#B7BF46" stroke-width="2" stroke-miterlimit="10" stroke-linejoin="round"/>
<path d="M224.168 26.3279L225.572 25.9469" stroke="#B7BF46" stroke-width="2" stroke-miterlimit="10" stroke-linejoin="round"/>
</g>
<defs>
<clipPath id="clip0_95_472">
<rect width="48" height="48" fill="white" transform="translate(359.855 366) rotate(18.0288)"/>
</clipPath>
<clipPath id="clip1_95_472">
<rect width="32.7306" height="34.9126" fill="white" transform="translate(209.769 12.1477) rotate(-15.1827)"/>
</clipPath>
</defs>
</svg>
