<svg width="1650" height="389" viewBox="0 0 1650 389" fill="none" xmlns="http://www.w3.org/2000/svg">
<path opacity="0.36" fill-rule="evenodd" clip-rule="evenodd" d="M1557.25 64.0468C1433.15 104.084 1305.03 38.4744 1181.19 -25.02C1103.5 -64.8569 1015.45 -110 957.219 -110.203C948.797 -110.234 937.302 -109.429 923.068 -102.914C858.444 -73.346 1025.2 54.4163 1135.55 138.962C1273.6 244.712 1357.04 311.681 1334.34 354.125C1327.88 366.193 1312.97 375.92 1291.23 382.245C1188.06 412.209 1035.55 330.465 752.367 171.073C630.603 102.543 504.704 31.6775 394.201 -18.1448C242.853 -86.3885 187.472 -84.164 170.722 -80.0988C92.6804 -60.9905 121.095 -8.16916 173.374 70.2337C222.105 143.32 277.318 226.164 127.433 254.35C-129.104 302.604 -329.529 129.192 -337.955 121.791C-349.075 111.987 -341.231 99.3485 -320.406 93.5585C-299.563 87.7745 -273.675 91.0238 -262.539 100.827C-260.821 102.333 -85.9311 250.858 99.343 216.034C165.9 203.51 140.919 157.929 91.8621 84.3413C40.6582 7.54858 -17.3654 -79.4869 134.625 -116.684C145.455 -119.336 156.628 -121.165 168.214 -122.202C310.806 -134.939 513.685 -27.9471 818.31 143.501C919.384 200.392 1014.86 254.126 1096.17 292.977C1213.18 348.882 1246.99 347.318 1249.37 347.189C1250.42 346.881 1250.89 346.746 1251.59 345.438C1266.29 317.976 1153.38 231.469 1062.64 161.962C901.117 38.2129 748.548 -78.6742 865.592 -132.23C893.708 -145.098 925.982 -151.528 961.46 -151.426C1055.12 -151.103 1147.18 -103.904 1244.64 -53.9376C1340.17 -4.95896 1448.61 50.5355 1511.79 30.0895C1540.77 20.742 1557.14 9.00961 1561.85 -5.77714C1576.39 -51.4336 1480.98 -115.35 1442.96 -136.13C1427.7 -144.48 1429.89 -157.519 1447.85 -165.252C1465.84 -172.97 1492.81 -172.5 1508.08 -164.151C1514.7 -160.554 1669.74 -75.0552 1646.37 -1.29965C1637.91 25.3583 1607.1 47.959 1557.25 64.0468Z" stroke="#4A4545"/>
</svg>
