<svg width="500" height="500" viewBox="0 0 500 500" fill="none" xmlns="http://www.w3.org/2000/svg">
<path d="M406.25 54.6875H140.625C126.121 54.6875 112.211 60.4492 101.955 70.7051C91.6992 80.961 85.9375 94.871 85.9375 109.375V437.5C85.9375 439.572 86.7606 441.559 88.2257 443.024C89.6909 444.489 91.678 445.312 93.75 445.312H375C377.072 445.312 379.059 444.489 380.524 443.024C381.989 441.559 382.812 439.572 382.812 437.5C382.812 435.428 381.989 433.441 380.524 431.976C379.059 430.511 377.072 429.688 375 429.688H101.562V421.875C101.563 411.515 105.678 401.579 113.004 394.254C120.329 386.928 130.265 382.813 140.625 382.812H406.25C408.322 382.812 410.309 381.989 411.774 380.524C413.239 379.059 414.062 377.072 414.062 375V62.5C414.062 60.428 413.239 58.4409 411.774 56.9757C410.309 55.5106 408.322 54.6875 406.25 54.6875ZM226.562 70.3125H335.938V234.375L285.918 196.875C284.566 195.861 282.921 195.312 281.23 195.312C279.54 195.312 277.895 195.861 276.543 196.875L226.562 234.375V70.3125ZM398.438 367.188H140.625C133.346 367.185 126.14 368.639 119.432 371.463C112.723 374.287 106.648 378.425 101.562 383.633V109.375C101.563 99.015 105.678 89.0793 113.004 81.7536C120.329 74.428 130.265 70.3125 140.625 70.3125H210.938V250C210.938 251.451 211.342 252.873 212.104 254.107C212.867 255.341 213.958 256.339 215.256 256.988C216.554 257.637 218.007 257.911 219.452 257.781C220.897 257.651 222.277 257.121 223.438 256.25L281.25 212.891L339.082 256.25C340.434 257.264 342.079 257.812 343.77 257.812C345.842 257.812 347.829 256.989 349.294 255.524C350.759 254.059 351.582 252.072 351.582 250V70.3125H398.457L398.438 367.188Z" fill="#E30613"/>
</svg>
