<svg width="446" height="467" viewBox="0 0 446 467" fill="none" xmlns="http://www.w3.org/2000/svg">
<path fill-rule="evenodd" clip-rule="evenodd" d="M247.359 307.568C242.874 301.725 243.976 293.346 249.819 288.861C255.663 284.377 264.042 285.479 268.527 291.322C273.011 297.165 271.909 305.544 266.066 310.029C260.223 314.514 251.858 313.43 247.359 307.568Z" fill="#3D8AA0"/>
<path d="M229.614 49.5943C234.1 55.4396 242.476 56.5413 248.321 52.0549C254.166 47.5686 255.268 39.1931 250.781 33.3478C246.295 27.5025 237.92 26.4008 232.074 30.8872C226.229 35.3736 225.127 43.749 229.614 49.5943Z" fill="#F8D552"/>
<path fill-rule="evenodd" clip-rule="evenodd" d="M96.521 421.723C92.0362 415.88 93.1384 407.5 98.9816 403.016C104.825 398.531 113.204 399.633 117.689 405.476C122.173 411.319 121.071 419.699 115.228 424.183C109.385 428.668 101.02 427.584 96.521 421.723Z" fill="#B7BF46"/>
<circle cx="429.54" cy="223.236" r="9.69653" transform="rotate(-37.5068 429.54 223.236)" stroke="#FF9D01" stroke-width="3"/>
<path d="M109.108 203.268C112.019 207.061 117.453 207.775 121.245 204.865C125.038 201.954 125.753 196.52 122.842 192.727C119.931 188.935 114.497 188.22 110.704 191.131C106.912 194.041 106.197 199.476 109.108 203.268Z" fill="#A349A8"/>
<path d="M335.443 266.888L334.853 267.695L335.661 268.285L336.251 267.477L335.443 266.888ZM328.938 262.135L329.528 261.327L328.721 260.737L328.131 261.545L328.938 262.135ZM336.623 265.273L337.431 265.863L338.021 265.055L337.213 264.465L336.623 265.273ZM330.118 260.52L329.311 259.93L328.721 260.737L329.528 261.327L330.118 260.52ZM334.872 254.014L335.679 254.604L336.269 253.796L335.462 253.207L334.872 254.014ZM333.257 252.834L333.847 252.027L333.039 251.437L332.45 252.244L333.257 252.834ZM328.503 259.34L327.914 260.147L328.721 260.737L329.311 259.93L328.503 259.34ZM321.997 254.586L322.587 253.779L321.78 253.189L321.19 253.996L321.997 254.586ZM320.817 256.201L320.01 255.611L319.42 256.419L320.227 257.009L320.817 256.201ZM327.324 260.955L328.131 261.545L328.721 260.737L327.914 260.147L327.324 260.955ZM322.571 267.46L321.763 266.87L321.173 267.677L321.981 268.267L322.571 267.46ZM324.185 268.64L323.595 269.447L324.403 270.037L324.993 269.23L324.185 268.64ZM336.033 266.08L329.528 261.327L328.348 262.942L334.853 267.695L336.033 266.08ZM335.816 264.683L334.636 266.298L336.251 267.477L337.431 265.863L335.816 264.683ZM329.528 261.327L336.033 266.08L337.213 264.465L330.708 259.712L329.528 261.327ZM334.064 253.424L329.311 259.93L330.926 261.11L335.679 254.604L334.064 253.424ZM332.667 253.642L334.282 254.821L335.462 253.207L333.847 252.027L332.667 253.642ZM329.311 259.93L334.064 253.424L332.45 252.244L327.696 258.75L329.311 259.93ZM321.407 255.394L327.914 260.147L329.093 258.532L322.587 253.779L321.407 255.394ZM321.625 256.791L322.805 255.176L321.19 253.996L320.01 255.611L321.625 256.791ZM327.914 260.147L321.407 255.394L320.227 257.009L326.734 261.762L327.914 260.147ZM323.378 268.05L328.131 261.545L326.516 260.365L321.763 266.87L323.378 268.05ZM324.775 267.832L323.161 266.653L321.981 268.267L323.595 269.447L324.775 267.832ZM328.131 261.545L323.378 268.05L324.993 269.23L329.746 262.725L328.131 261.545Z" fill="#3D8AA0"/>
</svg>
