<svg width="392" height="510" viewBox="0 0 392 510" fill="none" xmlns="http://www.w3.org/2000/svg">
<path fill-rule="evenodd" clip-rule="evenodd" d="M214.582 201.575C219.79 206.784 219.79 215.235 214.582 220.444C209.373 225.652 200.922 225.652 195.713 220.444C190.505 215.235 190.505 206.784 195.713 201.575C200.922 196.367 209.357 196.35 214.582 201.575Z" fill="#A349A8"/>
<path d="M265.818 455.032C260.608 449.822 252.16 449.822 246.95 455.032C241.739 460.243 241.739 468.69 246.95 473.9C252.16 479.111 260.608 479.111 265.818 473.9C271.028 468.69 271.028 460.243 265.818 455.032Z" fill="#FF6462"/>
<path fill-rule="evenodd" clip-rule="evenodd" d="M349.246 68.7252C354.454 73.9336 354.454 82.385 349.246 87.5935C344.037 92.8019 335.586 92.8019 330.377 87.5935C325.169 82.385 325.169 73.9336 330.377 68.7252C335.586 63.5168 344.021 63.5004 349.246 68.7252Z" fill="#F8D552"/>
<circle cx="44.9538" cy="308.945" r="9.69653" transform="rotate(135 44.9538 308.945)" stroke="#FF9D01" stroke-width="3"/>
<path d="M256.363 315.121C252.983 311.74 247.502 311.74 244.121 315.121C240.741 318.501 240.741 323.982 244.121 327.363C247.502 330.743 252.983 330.743 256.363 327.363C259.744 323.982 259.744 318.501 256.363 315.121Z" fill="#55BAD0"/>
<path d="M132.823 151.069L133.303 150.192L132.425 149.712L131.946 150.59L132.823 151.069ZM139.893 154.933L139.413 155.811L140.29 156.29L140.77 155.413L139.893 154.933ZM131.864 152.824L130.987 152.345L130.507 153.222L131.385 153.702L131.864 152.824ZM138.933 156.688L139.811 157.168L140.29 156.29L139.413 155.811L138.933 156.688ZM135.069 163.758L134.191 163.279L133.712 164.156L134.589 164.636L135.069 163.758ZM136.824 164.718L136.344 165.595L137.222 166.075L137.701 165.197L136.824 164.718ZM140.688 157.648L141.168 156.77L140.29 156.29L139.811 157.168L140.688 157.648ZM147.759 161.512L147.279 162.39L148.157 162.869L148.636 161.992L147.759 161.512ZM148.718 159.757L149.595 160.237L150.075 159.359L149.198 158.88L148.718 159.757ZM141.647 155.893L140.77 155.413L140.29 156.29L141.168 156.77L141.647 155.893ZM145.512 148.823L146.389 149.303L146.869 148.425L145.991 147.946L145.512 148.823ZM143.757 147.864L144.236 146.986L143.359 146.507L142.879 147.384L143.757 147.864ZM132.344 151.947L139.413 155.811L140.372 154.056L133.303 150.192L132.344 151.947ZM132.742 153.304L133.701 151.549L131.946 150.59L130.987 152.345L132.742 153.304ZM139.413 155.811L132.344 151.947L131.385 153.702L138.454 157.566L139.413 155.811ZM135.946 164.238L139.811 157.168L138.056 156.209L134.191 163.279L135.946 164.238ZM137.303 163.84L135.548 162.881L134.589 164.636L136.344 165.595L137.303 163.84ZM139.811 157.168L135.946 164.238L137.701 165.197L141.566 158.127L139.811 157.168ZM148.238 160.635L141.168 156.77L140.209 158.525L147.279 162.39L148.238 160.635ZM147.84 159.278L146.881 161.033L148.636 161.992L149.595 160.237L147.84 159.278ZM141.168 156.77L148.238 160.635L149.198 158.88L142.127 155.015L141.168 156.77ZM144.634 148.343L140.77 155.413L142.525 156.372L146.389 149.303L144.634 148.343ZM143.277 148.741L145.032 149.701L145.991 147.946L144.236 146.986L143.277 148.741ZM140.77 155.413L144.634 148.343L142.879 147.384L139.015 154.454L140.77 155.413Z" fill="#FF6462"/>
</svg>
