<svg width="38" height="42" viewBox="0 0 38 42" fill="none" xmlns="http://www.w3.org/2000/svg">
<g clip-path="url(#clip0_9_501)">
<path d="M37.8625 20.0208C37.6218 19.2425 37.1233 18.6097 36.4873 18.1906L36.4701 18.1564L5.0541 0.419059L5.0455 0.427611C5.00253 0.401955 4.95955 0.38485 4.91657 0.359194C4.8736 0.342089 4.83062 0.324985 4.78764 0.30788C4.74467 0.282224 4.71028 0.265119 4.66731 0.248015C4.58995 0.222358 4.51259 0.196701 4.43523 0.171045C4.40085 0.15394 4.36647 0.145388 4.33209 0.136836C4.26333 0.119731 4.19456 0.0940745 4.1258 0.0855223C4.10002 0.0769701 4.07423 0.0684178 4.05704 0.0684178C3.96249 0.0513134 3.86794 0.0342089 3.77339 0.0256567C3.74761 0.0256567 3.72182 0.0171045 3.69603 0.0171045C3.59289 0.00855223 3.48975 0 3.3866 0C2.85369 0 2.35516 0.119731 1.9082 0.342089L13.9503 21.0043L13.9675 21.0214L38 21.0043C38 20.8503 37.9828 20.7049 37.9657 20.551C37.9399 20.3714 37.9141 20.1918 37.8625 20.0208Z" fill="#B70F2F"/>
<path d="M1.90817 0.342041C1.03144 0.769652 0.361004 1.56501 0.111739 2.53141C0.111739 2.53996 0.103144 2.54852 0.103144 2.55707C0.0773581 2.66825 0.051572 2.78798 0.0343814 2.90771C0.0343814 2.92481 0.025786 2.93337 0.025786 2.95047C0.0171907 3.0702 0 3.19849 0 3.33532V38.6902C0 38.8271 0.0171907 38.9554 0.0343814 39.0836V39.0922C0.180502 40.127 0.790771 41.0079 1.65031 41.521L13.9674 21.0213L1.90817 0.342041ZM5.28613 6.15756C5.27754 6.15756 5.27754 6.15756 5.28613 6.15756V6.15756Z" fill="#EF5463"/>
<path d="M37.9751 21.4574C37.9751 21.4318 37.9837 21.4147 37.9837 21.389C38.0009 21.2693 38.0095 21.141 38.0095 21.0127C38.0095 21.0042 38.0095 21.0042 38.0095 20.9956L13.8995 21.0127L1.64258 41.5124C1.7801 41.5979 1.91763 41.6663 2.07235 41.7348C2.08954 41.7433 2.10673 41.7433 2.12392 41.7519C2.18408 41.7775 2.23566 41.7946 2.29582 41.8117C2.3388 41.8288 2.38178 41.8374 2.42475 41.8545C2.48492 41.8716 2.55368 41.8887 2.61385 41.9058C2.65683 41.9144 2.69121 41.9229 2.73419 41.9315C2.80295 41.9486 2.88031 41.9571 2.95767 41.9657C2.99205 41.9742 3.02643 41.9742 3.06081 41.9828C3.17255 41.9913 3.28429 41.9999 3.39603 41.9999C3.49917 41.9999 3.60232 41.9913 3.69686 41.9828C3.73125 41.9828 3.75703 41.9742 3.79141 41.9742C3.86018 41.9657 3.93753 41.9571 4.0063 41.94C4.04068 41.9315 4.08365 41.9229 4.11804 41.9144C4.19539 41.8973 4.26416 41.8801 4.34152 41.8545C4.39309 41.8374 4.45325 41.8203 4.50483 41.8032C4.53061 41.7946 4.5564 41.7861 4.58218 41.7775C4.77988 41.7006 4.96897 41.6065 5.14948 41.5039L35.9982 24.0915C37.0468 23.6297 37.8204 22.6376 37.9751 21.4574Z" fill="#E5203D"/>
</g>
<defs>
<clipPath id="clip0_9_501">
<rect width="38" height="42" fill="white"/>
</clipPath>
</defs>
</svg>
