<?xml version="1.0" encoding="utf-8"?>
<!-- Generator: Adobe Illustrator 24.3.0, SVG Export Plug-In . SVG Version: 6.00 Build 0)  -->
<svg version="1.1" id="Layer_1" xmlns="http://www.w3.org/2000/svg" xmlns:xlink="http://www.w3.org/1999/xlink" x="0px" y="0px"
	 viewBox="0 0 976 387" style="enable-background:new 0 0 976 387;" xml:space="preserve">
<style type="text/css">
	.st0{fill:#EE3124;}
	.st1{fill:#FFFFFF;}
</style>
<g id="g14278">
	<g id="g14258">
		<path id="path14254" class="st0" d="M249.5,252c0,64.1-51.9,116-116,116c-64.1,0-116-52-116-116s51.9-116,116-116
			C197.6,136,249.5,187.9,249.5,252"/>
		<path id="path14256" class="st1" d="M134.4,316.7c-31.9,0.1-65-27.1-65.2-70.8c-0.1-28.9,15.5-56.7,35.4-73.2
			c19.4-16.1,46.1-26.4,70.2-26.5c3.1,0,6.4,0.2,8.4,0.9c-21.1,4.4-37.9,24-37.8,46.3c0,0.7,0.1,1.5,0.1,1.9
			c35.3,8.6,51.4,29.9,51.5,59.4C197,284.2,173.7,316.5,134.4,316.7"/>
	</g>
	<path id="polygon14260" class="st0" d="M312.1,215.4l22.2,56.2l21.4-56.2h22.1L343.4,300h-19l-35.4-84.6H312.1z"/>
	<g id="g14270">
		<path id="path14262" class="st0" d="M439.5,257.3c0-3.5-0.4-6.9-1.2-10.1s-2-5.9-3.7-8.2s-3.6-4.1-6-5.4c-2.4-1.3-5.1-2-8.3-2
			c-3.1,0-5.9,0.7-8.3,2c-2.4,1.3-4.3,3.2-6,5.4c-1.7,2.3-2.9,5-3.7,8.2s-1.2,6.5-1.2,10.1c0,3.6,0.4,7,1.2,10.2
			c0.8,3.1,2,5.9,3.6,8.2c1.6,2.4,3.6,4.2,6,5.5c2.4,1.3,5.2,2,8.4,2s5.9-0.7,8.3-2c2.4-1.3,4.3-3.2,6-5.5c1.7-2.4,2.9-5.1,3.7-8.2
			C439.1,264.3,439.5,260.9,439.5,257.3 M461,257.4c0,5.5-0.8,10.9-2.5,16.2c-1.7,5.4-4.2,10.1-7.6,14.3c-3.3,4.2-7.6,7.6-12.6,10.2
			c-5.1,2.6-11,3.9-17.8,3.9c-6.8,0-12.7-1.3-17.8-3.9c-5.1-2.6-9.3-6-12.6-10.2c-3.3-4.2-5.9-9-7.6-14.3s-2.5-10.8-2.5-16.2
			s0.8-10.9,2.5-16.2s4.2-10,7.6-14.1c3.3-4.2,7.6-7.5,12.6-10c5.1-2.5,11-3.8,17.8-3.8c6.8,0,12.7,1.2,17.7,3.8
			c5,2.5,9.2,5.9,12.6,10c3.4,4.2,6,8.9,7.7,14.1S461,251.9,461,257.4"/>
		<path id="path14264" class="st0" d="M526.4,234c-4.2-1.7-8.1-2.4-11.7-2.4c-3.7,0-6.9,0.7-9.6,2.1s-4.9,3.3-6.6,5.7
			c-1.8,2.4-3,5.1-3.9,8.1c-0.9,3-1.3,6.1-1.3,9.2c0,3.5,0.4,6.9,1.2,10.2c0.7,3.2,1.9,6,3.5,8.4c1.6,2.4,3.6,4.3,6,5.8
			s5.2,2.2,8.5,2.2c2.7,0,5.4-0.7,8.2-2.2c2.8-1.5,4.8-3.2,6-5.2L526.4,234L526.4,234z M528.1,300l-0.9-6.5c-2,2.2-4.6,4.2-7.9,5.9
			c-3.3,1.7-7.1,2.5-11.5,2.5c-5.8,0-11-1.2-15.4-3.7s-8.2-5.7-11.2-9.8s-5.4-8.9-6.9-14.2c-1.6-5.4-2.4-11-2.4-16.8
			c0-5.5,0.8-10.9,2.4-16.2s4.1-10,7.4-14.1c3.3-4.2,7.5-7.5,12.5-10c5-2.5,10.9-3.8,17.7-3.8c4.4,0,9.2,0.8,14.4,2.4V183h21.8
			v117.1L528.1,300L528.1,300z"/>
		<path id="path14266" class="st0" d="M609.4,260.4c-2.4,0.1-4.8,0.3-7.2,0.6c-2.5,0.3-4.8,0.7-7.1,1.2c-4.7,0.9-8,2.5-9.8,4.8
			c-1.8,2.3-2.7,4.8-2.7,7.5c0,2.8,1,5.1,3.1,6.8c2.1,1.7,5,2.5,8.8,2.5c2.8,0,5.6-0.6,8.2-1.8c2.6-1.2,4.9-2.6,6.8-4.4L609.4,260.4
			L609.4,260.4z M611.2,300l-0.9-6.3c-2.4,2.6-5.4,4.7-9,6.1c-3.6,1.5-7.6,2.2-12,2.2c-3.6,0-7.2-0.6-10.5-1.8
			c-3.4-1.2-6.3-3-8.9-5.3s-4.7-5.1-6.3-8.4c-1.6-3.3-2.4-7.1-2.4-11.3c0-4.2,0.8-7.9,2.4-11.2c1.7-3.2,3.9-6,6.7-8.2
			c2.8-2.2,6-4.1,9.7-5.4c3.6-1.4,7.5-2.4,11.4-3.1c2.8-0.6,5.9-1,9.3-1.3c3.3-0.3,6.1-0.6,8.4-0.8v-1.2c0-4.7-1.2-8-3.6-10
			c-2.4-2-5.7-3-10-3c-2.5,0-4.8,0.3-7.1,0.9c-2.2,0.6-4.2,1.3-6,2.2c-1.8,0.9-3.3,1.8-4.7,2.6c-1.3,0.9-2.4,1.7-3.3,2.4l-7.2-15.2
			c0.9-0.8,2.4-1.8,4.3-3c1.9-1.2,4.3-2.3,7-3.4c2.8-1.1,5.9-2,9.3-2.8c3.5-0.7,7.2-1.2,11.2-1.2c4.7,0,9,0.6,12.8,1.8
			c3.9,1.2,7.2,3.1,10,5.8c2.8,2.6,5,6,6.6,10c1.6,4,2.4,8.9,2.4,14.6V300L611.2,300L611.2,300z"/>
		<path id="path14268" class="st0" d="M715.2,292.4c-0.8,0.6-2.1,1.4-3.8,2.4c-1.8,1.1-3.9,2.1-6.6,3c-2.6,1-5.7,1.8-9.1,2.5
			c-3.5,0.7-7.4,1.1-11.9,1.1c-5.1,0-10-0.9-14.7-2.6c-4.7-1.8-8.9-4.4-12.5-8c-3.6-3.6-6.6-8.1-8.7-13.6
			c-2.2-5.4-3.2-11.9-3.2-19.3c0-7.4,1.1-13.9,3.1-19.5c2.1-5.6,4.9-10.2,8.5-13.9c3.6-3.7,7.7-6.5,12.4-8.3s9.6-2.7,14.7-2.7
			c4.9,0,9.1,0.6,12.8,1.9c3.6,1.3,6.8,2.9,9.5,4.8s4.8,4.1,6.6,6.4c1.7,2.3,3,4.5,4.1,6.6l-16,10.8c-1.8-3-3.9-5.8-6.6-8.4
			c-2.6-2.6-6-3.9-10.2-3.9c-4.7,0-8.7,2.1-12.1,6.2c-3.4,4.1-5.1,10.5-5.1,19.2c0,8.4,1.8,14.8,5.2,19.2c3.5,4.4,8.5,6.6,15.1,6.6
			c3.1,0,6-0.3,8.4-1c2.5-0.6,4.7-1.4,6.6-2.3c1.8-0.9,3.4-1.8,4.6-2.7c1.2-0.9,2.1-1.7,2.7-2.3L715.2,292.4z"/>
	</g>
	<g id="g14276">
		<path id="path14272" class="st0" d="M781.9,257.1c0-3.5-0.4-6.8-1.2-10c-0.8-3.1-2-5.9-3.6-8.1c-1.6-2.3-3.6-4.1-5.9-5.4
			s-5.1-2-8.2-2c-3.1,0-5.9,0.7-8.2,2c-2.3,1.3-4.3,3.1-5.9,5.4c-1.6,2.3-2.9,5-3.6,8.1c-0.8,3.1-1.2,6.5-1.2,10
			c0,3.6,0.4,7,1.2,10.1c0.8,3.1,2,5.8,3.6,8.1c1.6,2.3,3.6,4.2,5.9,5.5c2.4,1.3,5.1,2,8.3,2s5.9-0.6,8.2-2c2.3-1.3,4.3-3.2,5.9-5.5
			c1.6-2.4,2.9-5,3.6-8.1C781.4,264.1,781.9,260.7,781.9,257.1 M803.1,257.2c0,5.4-0.8,10.8-2.5,16.1c-1.7,5.3-4.2,10-7.5,14.2
			c-3.3,4.2-7.5,7.6-12.6,10.1s-10.9,3.8-17.7,3.8c-6.7,0-12.6-1.3-17.7-3.8c-5.1-2.5-9.2-5.9-12.6-10.1c-3.3-4.2-5.8-8.9-7.5-14.2
			c-1.7-5.3-2.5-10.7-2.5-16.1c0-5.4,0.8-10.8,2.5-16c1.7-5.2,4.2-9.9,7.5-14c3.3-4.1,7.5-7.4,12.6-9.9c5.1-2.5,10.9-3.7,17.7-3.7
			c6.7,0,12.6,1.2,17.6,3.7c5,2.5,9.2,5.8,12.6,9.9c3.4,4.1,5.9,8.8,7.6,14C802.3,246.4,803.1,251.7,803.1,257.2"/>
		<path id="path14274" class="st0" d="M918.9,299.5v-49.3c0-5.6-1.1-10.1-3.1-13.5c-2.1-3.4-6-5.1-11.7-5.1c-1.6,0-3.3,0.3-5,0.8
			c-1.7,0.5-3.3,1.1-4.8,1.8c-1.5,0.7-2.9,1.4-4,2.2s-2.1,1.4-2.8,2c0.2,1.4,0.5,3,0.7,4.7c0.2,1.8,0.4,3.6,0.4,5.8v50.7H867v-49.3
			c0-2.5-0.2-5-0.6-7.2c-0.4-2.3-1.2-4.2-2.2-5.9c-1.1-1.7-2.4-3-4.1-4c-1.7-1-3.8-1.5-6.4-1.5c-3.3,0-6.3,0.9-9.2,2.6
			c-2.9,1.8-5.4,3.6-7.3,5.6v59.8h-21.6v-84h19.8l0.9,6.3c2.6-2.3,5.7-4.3,9.5-5.9c3.8-1.6,7.6-2.4,11.4-2.4c4,0,7.9,0.6,11.8,1.8
			c3.9,1.2,7.5,3.3,10.9,6.4c3.8-2.3,8.1-4.3,12.6-5.9c4.6-1.6,9.5-2.4,14.8-2.4c6.3,0,11.5,0.8,15.8,2.4s7.7,4,10.2,7
			c2.6,3,4.4,6.7,5.5,11.2c1.1,4.4,1.7,9.5,1.7,15.2v50.4L918.9,299.5L918.9,299.5z"/>
	</g>
</g>
</svg>
